# xmcd
#
# Track frame offsets:
# 150
# 31153
# 44119
# 69516
# 91752
# 113944
# 141284
# 154397
# 169137
# 175269
# 197408
# 234476
# 253060
# 268314
# 280068
#
# Disc length: 3784 seconds
#
#
# Revision: 0
# Processed by: cddbd v1.5.2PL0 Copyright (c) Steve Scherf et al.
# Submitted via: FreeRIP 2.944 
#
DISCID=da0ec60f
DTITLE=Norman Blake and Friends - Old Time Pickin' Parlour - Nashville, TN
DYEAR=1971
DGENRE=Bluegrass
TTITLE0=Weary Weary Blues/ Columbus Stockade Blues/ Long Journey Home
TTITLE1=Dobro Chimes
TTITLE2=End of the World
TTITLE3=Ruff N' Ready
TTITLE4=Midnight at Beanblossom
TTITLE5=John Hardy
TTITLE6=Weave and Way
TTITLE7=Instrumental (?)
TTITLE8=London Hornpipe (x)
TTITLE9=Indian Creek
TTITLE10=Sleepy-Eyed Joe
TTITLE11=The Girl I Left in Sunny Tennessee
TTITLE12=The Red-Haired Boy (Little Beggarman)
TTITLE13=Little Maggie
TTITLE14=Instrumental (?)
EXTD=tracks 1-9 Norman Blake, Tut Taylor, Frasier Moss, Ed ?Doc? Cullis, \nCharlie Collins, and Bashful Brother Oswald Kirby - tracks 10-15 Norman Blake and Ed ?Doc? Cullis \nUnknown Venue, Circa 1971-72
EXTT0=
EXTT1=
EXTT2=
EXTT3=
EXTT4=
EXTT5=
EXTT6=
EXTT7=
EXTT8=
EXTT9=
EXTT10=
EXTT11=
EXTT12=
EXTT13=
EXTT14=
PLAYORDER=
